<svg width="44" height="35" viewBox="0 0 44 35" fill="none" xmlns="http://www.w3.org/2000/svg">
<g id="Group 2">
<path id="&#226;&#128;&#156;" d="M5.20703 34.0528V25.5647C5.20703 23.1545 5.68429 20.6918 6.63881 18.1768C7.59333 15.6618 8.85276 13.2909 10.4171 11.0641C11.9815 8.83723 13.6784 6.97717 15.5079 5.48389L22.9849 9.84586C21.5001 12.1513 20.2805 14.5615 19.3259 17.0765C18.3979 19.5915 17.9339 22.3947 17.9339 25.4861V34.0528H5.20703ZM25.2917 34.0528V25.5647C25.2917 23.1545 25.7689 20.6918 26.7235 18.1768C27.678 15.6618 28.9374 13.2909 30.5018 11.0641C32.0661 8.83723 33.763 6.97717 35.5925 5.48389L43.0696 9.84586C41.5848 12.1513 40.3651 14.5615 39.4106 17.0765C38.4826 19.5915 38.0186 22.3947 38.0186 25.4861V34.0528H25.2917Z" fill="#F2EFFE"/>
<path id="&#226;&#128;&#156;_2" d="M0.5 30.5689V31.0689H1H13.7269H14.2269V30.5689V22.0022C14.2269 18.9619 14.6831 16.2191 15.5872 13.7678C16.529 11.2869 17.7324 8.90865 19.1983 6.6327L19.4812 6.1934L19.0299 5.93009L11.5528 1.56812L11.2533 1.3934L10.9847 1.61265C9.11487 3.13884 7.38766 5.03408 5.80094 7.29276C4.21293 9.55329 2.93379 11.9611 1.96431 14.5155C0.990769 17.0807 0.5 19.6033 0.5 22.0808V30.5689ZM20.5847 30.5689V31.0689H21.0847H33.8116H34.3116V30.5689V22.0022C34.3116 18.962 34.7677 16.2194 35.6717 13.7682C36.6135 11.2871 37.817 8.90876 39.2829 6.6327L39.5659 6.1934L39.1145 5.93009L31.6374 1.56812L31.3379 1.3934L31.0693 1.61265C29.1995 3.13884 27.4723 5.03408 25.8856 7.29276C24.2976 9.55329 23.0184 11.9611 22.049 14.5155C21.0754 17.0807 20.5847 19.6033 20.5847 22.0808V30.5689Z" stroke="#8576E6"/>
</g>
</svg>
