<svg width="24" height="24" viewBox="0 0 28 32" fill="none" xmlns="http://www.w3.org/2000/svg">
<g id="tiktok 1" clip-path="url(#clip0_142_7444)">
<path id="Vector" d="M28.0002 13.1194C25.2486 13.126 22.5645 12.2678 20.3271 10.6663V21.8363C20.3263 23.9051 19.694 25.9243 18.5146 27.6241C17.3352 29.3238 15.6651 30.6229 13.7274 31.3478C11.7898 32.0727 9.677 32.1888 7.6716 31.6805C5.66621 31.1722 3.86379 30.0638 2.50535 28.5035C1.14691 26.9431 0.297203 25.0053 0.0698459 22.949C-0.157511 20.8927 0.248319 18.8161 1.23307 16.9967C2.21782 15.1773 3.73456 13.7019 5.58047 12.7677C7.42638 11.8336 9.51347 11.4853 11.5627 11.7694V17.3875C10.625 17.0925 9.61802 17.1014 8.68565 17.4129C7.75327 17.7243 6.94316 18.3225 6.37099 19.1218C5.79882 19.9211 5.49385 20.8808 5.49964 21.8638C5.50543 22.8468 5.82168 23.8029 6.40323 24.5954C6.98478 25.3879 7.80188 25.9765 8.73785 26.2769C9.67383 26.5774 10.6808 26.5744 11.615 26.2684C12.5492 25.9624 13.3628 25.3691 13.9396 24.5731C14.5165 23.7772 14.8271 22.8193 14.8271 21.8363V0H20.3271C20.3232 0.464463 20.3622 0.928292 20.4433 1.38563C20.6344 2.40655 21.0318 3.37775 21.6112 4.23983C22.1905 5.10191 22.9396 5.83674 23.8127 6.39937C25.0548 7.22068 26.5111 7.65844 28.0002 7.65812V13.1194Z" fill="currentColor"/>
</g>
<defs>
<clipPath id="clip0_142_7444">
<rect width="28" height="32" fill="white"/>
</clipPath>
</defs>
</svg>
