<svg width="18" height="19" viewBox="0 0 18 19" fill="none" xmlns="http://www.w3.org/2000/svg">
<g id="close fix line">
<g id="Vector">
<path d="M14.4475 2.35216C14.917 1.88261 15.6783 1.88261 16.1478 2.35216C16.6174 2.82171 16.6174 3.58299 16.1478 4.05254L3.55279 16.6478C3.08326 17.1174 2.32199 17.1174 1.85245 16.6478C1.38291 16.1783 1.38291 15.417 1.85245 14.9475L14.4475 2.35216Z" fill="#EC274A"/>
<path d="M3.5525 2.35216C3.08296 1.88261 2.32169 1.88261 1.85215 2.35216C1.38262 2.82171 1.38262 3.58299 1.85215 4.05254L14.4472 16.6478C14.9167 17.1174 15.678 17.1174 16.1476 16.6478C16.6171 16.1783 16.6171 15.417 16.1476 14.9475L3.5525 2.35216Z" fill="#EC274A"/>
</g>
</g>
</svg>
