<svg width="24" height="24" viewBox="0 0 24 24" fill="none" xmlns="http://www.w3.org/2000/svg">
<path fill-rule="evenodd" clip-rule="evenodd" d="M12 10.3115C13.5143 10.3115 14.7418 9.08396 14.7418 7.56969C14.7418 6.05543 13.5143 4.82788 12 4.82788C10.4857 4.82788 9.25818 6.05543 9.25818 7.56969C9.25818 9.08396 10.4857 10.3115 12 10.3115ZM12 12.1394C14.5238 12.1394 16.5697 10.0935 16.5697 7.56969C16.5697 5.04592 14.5238 3 12 3C9.47623 3 7.43031 5.04592 7.43031 7.56969C7.43031 10.0935 9.47623 12.1394 12 12.1394Z" fill="currentColor"/>
<path fill-rule="evenodd" clip-rule="evenodd" d="M18.5118 7.327C18.1445 7.11491 17.7079 7.05744 17.2982 7.16722C16.8884 7.27701 16.5391 7.54507 16.327 7.91242C16.1149 8.27977 16.0574 8.71634 16.1672 9.12607C16.277 9.5358 16.5451 9.88513 16.9124 10.0972C17.2798 10.3093 17.7163 10.3668 18.1261 10.257C18.5358 10.1472 18.8851 9.87916 19.0972 9.51181C19.3093 9.14445 19.3668 8.70789 19.257 8.29816C19.1472 7.88843 18.8792 7.5391 18.5118 7.327ZM16.8251 5.40164C17.7031 5.16638 18.6386 5.28954 19.4257 5.74402C20.2129 6.1985 20.7873 6.94708 21.0226 7.82507C21.2578 8.70307 21.1347 9.63856 20.6802 10.4257C20.2257 11.2129 19.4771 11.7873 18.5992 12.0226C17.7212 12.2579 16.7857 12.1347 15.9985 11.6802C15.2113 11.2257 14.6369 10.4771 14.4016 9.59915C14.1664 8.72116 14.2895 7.78567 14.744 6.99848C15.1985 6.2113 15.9471 5.63689 16.8251 5.40164Z" fill="currentColor"/>
<path fill-rule="evenodd" clip-rule="evenodd" d="M7.08758 7.327C6.72022 7.11491 6.28366 7.05744 5.87393 7.16722C5.4642 7.27701 5.11486 7.54507 4.90277 7.91242C4.69068 8.27977 4.63321 8.71634 4.74299 9.12607C4.85278 9.5358 5.12084 9.88513 5.48819 10.0972C5.85554 10.3093 6.29211 10.3668 6.70184 10.257C7.11157 10.1472 7.4609 9.87916 7.67299 9.51181C7.88509 9.14445 7.94256 8.70789 7.83277 8.29816C7.72299 7.88843 7.45493 7.5391 7.08758 7.327ZM5.40084 5.40164C6.27884 5.16638 7.21433 5.28954 8.00151 5.74402C8.7887 6.1985 9.3631 6.94708 9.59836 7.82507C9.83362 8.70307 9.71046 9.63856 9.25598 10.4257C8.8015 11.2129 8.05292 11.7873 7.17492 12.0226C6.29693 12.2579 5.36144 12.1347 4.57425 11.6802C3.78707 11.2257 3.21266 10.4771 2.9774 9.59915C2.74215 8.72116 2.86531 7.78567 3.31979 6.99848C3.77427 6.2113 4.52285 5.63689 5.40084 5.40164Z" fill="currentColor"/>
<path fill-rule="evenodd" clip-rule="evenodd" d="M16.838 15.4379C17.6104 16.2802 18.0447 17.2572 18.2902 18.08H21.1124C20.6857 16.8493 19.7572 15.3382 17.7121 15.3382C17.3895 15.3382 17.0995 15.3741 16.838 15.4379ZM14.6241 14.5082C15.4153 13.9072 16.4355 13.5103 17.7121 13.5103C21.1367 13.5103 22.4646 16.2812 22.9164 17.7138C23.2987 18.9261 22.3059 19.9079 21.2465 19.9079H16.8287L16.6809 19.1744C16.4769 18.1613 15.9601 16.7994 14.6942 16.012L13.567 15.311L14.6241 14.5082Z" fill="currentColor"/>
<path fill-rule="evenodd" clip-rule="evenodd" d="M2.88759 18.08H5.70978C5.95525 17.2572 6.38957 16.2802 7.16201 15.4379C6.90046 15.3741 6.61049 15.3382 6.2879 15.3382C4.24283 15.3382 3.31431 16.8493 2.88759 18.08ZM1.08364 17.7137C1.53538 16.2812 2.86331 13.5103 6.2879 13.5103C7.56455 13.5103 8.58472 13.9072 9.37592 14.5081L10.433 15.311L9.3058 16.012C8.03989 16.7993 7.52307 18.1613 7.31904 19.1744L7.17131 19.9079H2.75348C1.69411 19.9079 0.701328 18.9261 1.08364 17.7137Z" fill="currentColor"/>
<path fill-rule="evenodd" clip-rule="evenodd" d="M7.30957 19.2224H16.6904C16.5525 18.5106 16.2506 17.575 15.6089 16.8088C14.9503 16.0226 13.8727 15.3382 12 15.3382C10.1273 15.3382 9.04967 16.0226 8.39109 16.8088C7.74939 17.575 7.44749 18.5106 7.30957 19.2224ZM6.98981 15.6351C8.00575 14.4222 9.60227 13.5103 12 13.5103C14.3977 13.5103 15.9942 14.4222 17.0102 15.6351C17.9943 16.81 18.3721 18.1916 18.5215 19.0763C18.7139 20.2163 17.7792 21.0503 16.7982 21.0503H7.20182C6.22079 21.0503 5.28611 20.2163 5.47853 19.0763C5.62787 18.1916 6.00573 16.81 6.98981 15.6351Z" fill="currentColor"/>
</svg>
