<svg width="705" height="470" viewBox="0 0 705 470" fill="none" xmlns="http://www.w3.org/2000/svg">
<path fill-rule="evenodd" clip-rule="evenodd" d="M508.156 124.217C496.284 130.942 458.155 157.573 436.753 223.254C426.123 255.876 426.781 290.265 432.509 320.241C438.239 350.228 449.018 375.661 458.478 390.32L455.592 392.194C445.858 377.11 434.934 351.249 429.133 320.89C423.329 290.519 422.626 255.51 433.486 222.182C455.201 155.539 493.989 128.282 506.466 121.214L508.156 124.217Z" fill="#3A3A3A"/>
<path fill-rule="evenodd" clip-rule="evenodd" d="M487.576 255.006C480.334 203.24 502.393 151.463 517.7 130.336L520.498 132.361C505.581 152.949 483.907 203.848 490.997 254.528C492.489 265.191 495.488 276.637 498.122 285.053C499.439 289.26 500.654 292.678 501.53 294.838C501.979 295.946 502.303 296.633 502.483 296.933C502.507 296.973 502.519 296.99 502.519 296.99C502.518 296.99 502.511 296.98 502.497 296.964C502.481 296.944 502.43 296.884 502.344 296.812C502.272 296.753 502.079 296.601 501.774 296.513C501.417 296.41 500.915 296.403 500.44 296.693C500.024 296.946 499.844 297.297 499.777 297.459C499.704 297.632 499.684 297.77 499.677 297.82C499.67 297.88 499.67 297.917 499.67 297.92V297.921L503.124 297.921C503.124 298.054 503.121 298.414 502.964 298.789C502.879 298.992 502.678 299.372 502.237 299.641C501.736 299.946 501.204 299.942 500.813 299.829C500.475 299.731 500.244 299.557 500.131 299.463C500.004 299.357 499.907 299.25 499.842 299.171C499.711 299.014 499.602 298.846 499.518 298.704C499.188 298.153 498.779 297.246 498.328 296.135C497.405 293.858 496.159 290.345 494.825 286.083C492.158 277.562 489.103 265.921 487.576 255.006Z" fill="#3A3A3A"/>
<path d="M561.923 267.167L480.785 437.346L622.777 442.097L701.325 267.167H561.923Z" fill="white"/>
<path fill-rule="evenodd" clip-rule="evenodd" d="M560.85 265.558H704.012L623.893 443.707L478.105 438.836L560.85 265.558ZM563.028 269.008L483.494 435.564L621.693 440.181L698.675 269.008H563.028Z" fill="#3A3A3A"/>
<path d="M578.398 395.414L556.445 350.789H574.955L583.564 365.086L610.683 336.925H634.788L578.398 395.414Z" fill="#00C2B3"/>
<path fill-rule="evenodd" clip-rule="evenodd" d="M691.131 274.143L616.142 439.414L612.994 437.994L685.731 277.685L568.167 279.77L495.19 436.844L492.055 435.396L565.941 276.364L691.131 274.143Z" fill="#3A3A3A"/>
<path d="M688.449 448.805C688.449 456.362 667.548 462.488 641.766 462.488C615.983 462.488 595.082 456.362 595.082 448.805C595.082 441.248 615.983 435.122 641.766 435.122C667.548 435.122 688.449 441.248 688.449 448.805Z" fill="#3A3A3A"/>
<path d="M325.711 445.317C325.711 441.464 328.802 438.341 332.614 438.341H618.227C622.04 438.341 625.13 441.464 625.13 445.317C625.13 449.169 622.04 452.292 618.227 452.292H332.614C328.802 452.292 325.711 449.169 325.711 445.317Z" fill="white"/>
<path fill-rule="evenodd" clip-rule="evenodd" d="M618.227 441.829H332.614C330.708 441.829 329.162 443.39 329.162 445.317C329.162 447.243 330.708 448.804 332.614 448.804H618.227C620.134 448.804 621.679 447.243 621.679 445.317C621.679 443.39 620.134 441.829 618.227 441.829ZM332.614 438.341C328.802 438.341 325.711 441.464 325.711 445.317C325.711 449.169 328.802 452.292 332.614 452.292H618.227C622.04 452.292 625.13 449.169 625.13 445.317C625.13 441.464 622.04 438.341 618.227 438.341H332.614Z" fill="#3A3A3A"/>
<path d="M574.691 445.317C574.691 444.428 575.449 443.707 576.384 443.707H594.999C595.934 443.707 596.692 444.428 596.692 445.317C596.692 446.206 595.934 446.927 594.999 446.927H576.384C575.449 446.927 574.691 446.206 574.691 445.317Z" fill="#00C2B3"/>
<path d="M605.277 445.317C605.277 444.428 606.078 443.707 607.066 443.707H608.855C609.842 443.707 610.643 444.428 610.643 445.317C610.643 446.206 609.842 446.927 608.855 446.927H607.066C606.078 446.927 605.277 446.206 605.277 445.317Z" fill="#00C2B3"/>
<path d="M424.445 435.658C424.445 433.287 426.353 431.365 428.707 431.365H434.672C437.026 431.365 438.933 433.287 438.933 435.658C438.933 438.029 437.026 439.951 434.672 439.951H428.706C426.353 439.951 424.445 438.029 424.445 435.658Z" fill="#3A3A3A"/>
<path d="M452.883 435.658C452.883 433.287 454.791 431.365 457.144 431.365H463.11C465.463 431.365 467.371 433.287 467.371 435.658C467.371 438.029 465.463 439.951 463.11 439.951H457.144C454.791 439.951 452.883 438.029 452.883 435.658Z" fill="#3A3A3A"/>
<path d="M397.613 435.658C397.613 433.287 399.521 431.365 401.874 431.365H407.84C410.194 431.365 412.101 433.287 412.101 435.658C412.101 438.029 410.194 439.951 407.84 439.951H401.874C399.521 439.951 397.613 438.029 397.613 435.658Z" fill="#3A3A3A"/>
<path d="M369.711 435.658C369.711 433.287 371.689 431.365 374.13 431.365H380.317C382.757 431.365 384.736 433.287 384.736 435.658C384.736 438.029 382.757 439.951 380.317 439.951H374.13C371.689 439.951 369.711 438.029 369.711 435.658Z" fill="#3A3A3A"/>
<path d="M278.85 86.161C280.226 83.3657 288.597 75.0963 292.61 71.311C293.471 72.039 294.847 73.6696 293.471 74.3684C292.095 75.0672 282.864 85.1419 278.42 90.0918C277.99 89.9462 277.474 88.9562 278.85 86.161Z" fill="#3A3A3A"/>
<path fill-rule="evenodd" clip-rule="evenodd" d="M291.811 121.911C290.566 119.475 289.672 116.699 289.223 114.876L291.734 114.238C292.149 115.921 292.981 118.492 294.109 120.7C294.673 121.805 295.288 122.771 295.926 123.483C296.576 124.207 297.155 124.564 297.637 124.662C299.278 124.995 300.462 125.055 301.25 125.011C301.879 124.976 302.181 124.88 302.264 124.853C302.294 124.844 302.296 124.843 302.275 124.857L303.711 127.045C303.199 127.392 302.371 127.582 301.391 127.636C300.345 127.695 298.94 127.608 297.129 127.24C295.885 126.988 294.846 126.183 294.012 125.253C293.167 124.311 292.433 123.129 291.811 121.911Z" fill="black"/>
<path d="M297.578 86.1295C296.473 87.1025 288.929 95.2714 286.767 96.5775C284.605 97.8836 298.442 96.5775 301.902 92.6595C305.361 88.7415 301.037 83.082 297.578 86.1295Z" fill="#3A3A3A"/>
<path d="M42.9258 441.84L62.2432 413.678V411.512L74.6921 429.275L92.2924 447.472L115.044 460.47L125.347 464.198L135.22 465.669C132.644 465.957 124.316 464.629 104.741 462.203C85.1665 459.776 55.3748 447.616 42.9258 441.84Z" fill="#1559D5"/>
<path fill-rule="evenodd" clip-rule="evenodd" d="M60.8622 407.755L75.6794 428.576L93.1844 446.398L115.815 459.129L125.953 462.742L135.758 464.181L135.712 466.734C134.927 466.821 133.805 466.781 132.347 466.66C130.863 466.537 128.936 466.322 126.494 466.024C124.431 465.773 121.987 465.462 119.115 465.097C118.584 465.03 118.039 464.96 117.478 464.889C113.884 464.432 109.671 463.899 104.751 463.299C84.8413 460.869 54.7113 448.743 42.1841 443.019L40.7812 442.378L60.8622 413.549V407.755ZM62.9245 415.113L44.6727 441.315C57.9015 447.242 86.2893 458.451 105.067 460.743C109.522 461.287 113.398 461.775 116.758 462.201L114.731 461.479L91.5876 448.459L73.6823 430.229L62.9245 415.113Z" fill="#1559D5"/>
<path fill-rule="evenodd" clip-rule="evenodd" d="M308.004 234.978C310.211 233.595 316.266 231.181 323.745 231.875C331.339 232.58 335.003 236.615 335.907 238.906L333.518 239.801C333.001 238.489 330.239 234.984 323.502 234.359C316.65 233.723 311.161 235.965 309.388 237.077L308.004 234.978Z" fill="#3A3A3A"/>
<path fill-rule="evenodd" clip-rule="evenodd" d="M315.667 242.203C320.758 239.722 327.022 238.728 331.92 238.729C336.835 238.729 340.053 239.764 342.029 241.328C344.042 242.92 344.654 244.98 344.458 246.645L341.88 246.342C341.972 245.563 341.719 244.387 340.415 243.355C339.075 242.295 336.524 241.317 331.92 241.317C327.3 241.317 321.451 242.265 316.807 244.528C312.172 246.788 308.99 250.207 308.99 255.121C308.99 260.605 309.838 263.72 310.897 265.737C311.761 267.38 312.773 268.347 313.866 269.39C314.128 269.641 314.396 269.897 314.667 270.167L312.832 271.997C312.621 271.787 312.394 271.572 312.156 271.346C311.04 270.285 309.676 268.991 308.598 266.938C307.278 264.425 306.395 260.853 306.395 255.121C306.395 248.82 310.568 244.689 315.667 242.203Z" fill="#3A3A3A"/>
<path fill-rule="evenodd" clip-rule="evenodd" d="M59.3945 362.683C63.1404 341.939 70.3357 320.673 75.8274 307.412L78.2206 308.398C72.7799 321.536 65.6481 342.622 61.9427 363.141C60.09 373.401 59.1027 383.472 59.5932 392.313C60.0849 401.176 62.0541 408.656 65.9766 413.873L66.3696 414.395C76.639 428.055 88.095 443.292 107.057 453.927C126.229 464.68 153.227 470.801 194.667 465.447C261.094 456.865 331.112 427.235 357.794 413.5L358.981 415.795C332.152 429.606 261.833 459.373 195 468.008C153.153 473.414 125.562 467.268 105.788 456.178C86.3471 445.274 74.6102 429.662 64.3799 416.054C64.2213 415.843 64.0631 415.632 63.9052 415.422C59.542 409.62 57.5123 401.548 57.0079 392.456C56.5022 383.341 57.5216 373.054 59.3945 362.683Z" fill="#3A3A3A"/>
<path fill-rule="evenodd" clip-rule="evenodd" d="M279.052 362.424C270.173 362.775 260.59 363.153 250.245 363.515C220.651 364.55 197.666 368.288 180.972 372.527C164.244 376.776 153.909 381.51 149.561 384.486L148.102 382.342C152.812 379.118 163.483 374.292 180.337 370.011C197.224 365.723 220.393 361.962 250.154 360.921C260.449 360.561 270.004 360.184 278.869 359.834C301.909 358.924 320.294 358.198 334.928 358.433C355.136 358.757 368.568 360.903 377.341 367.22C385.734 373.262 391.573 377.67 395.892 382.613C400.254 387.603 403.025 393.086 405.434 401.212C407.842 409.334 408.939 417.897 408.884 424.41C408.857 427.653 408.544 430.475 407.916 432.502C407.605 433.509 407.185 434.424 406.599 435.094C405.982 435.799 405.12 436.286 404.065 436.18C402.628 436.036 400.962 435.127 399.403 434.023C397.788 432.88 396.085 431.379 394.535 429.797C392.986 428.215 391.558 426.52 390.507 424.975C389.982 424.203 389.536 423.446 389.216 422.741C388.907 422.061 388.665 421.32 388.665 420.614H391.253C391.253 420.774 391.321 421.115 391.571 421.666C391.81 422.193 392.173 422.818 392.645 423.513C393.59 424.901 394.912 426.477 396.382 427.978C397.851 429.478 399.437 430.87 400.896 431.903C402.41 432.975 403.602 433.526 404.322 433.598L404.326 433.598C404.355 433.602 404.45 433.615 404.654 433.383C404.898 433.103 405.183 432.579 405.444 431.733C405.963 430.057 406.27 427.526 406.296 424.388C406.349 418.141 405.29 409.834 402.953 401.951C400.617 394.073 397.996 388.957 393.946 384.323C389.854 379.641 384.262 375.398 375.832 369.328C367.783 363.533 355.117 361.353 334.886 361.028C320.33 360.795 302.053 361.516 279.052 362.424Z" fill="black"/>
<path fill-rule="evenodd" clip-rule="evenodd" d="M387.614 391.085C385.868 384.312 383.391 378.455 381.662 375.165L383.919 373.95C385.739 377.414 388.29 383.459 390.087 390.432C391.881 397.395 392.954 405.394 391.718 412.719C390.212 421.651 387.905 425.812 385.465 427.838C384.23 428.864 383.035 429.279 382.084 429.521C381.857 429.579 381.641 429.628 381.455 429.67L381.446 429.672C381.251 429.716 381.095 429.751 380.955 429.788C380.817 429.824 380.722 429.855 380.655 429.883C380.598 429.906 380.576 429.921 380.575 429.922C379.97 430.38 379.289 430.347 378.784 430.174C378.318 430.014 377.905 429.713 377.569 429.416C376.883 428.812 376.164 427.912 375.488 426.954C374.12 425.015 372.726 422.542 371.859 420.861L374.125 419.664C374.963 421.289 376.295 423.646 377.568 425.451C378.213 426.365 378.793 427.065 379.247 427.465C379.314 427.524 379.373 427.572 379.425 427.61C379.737 427.448 380.053 427.352 380.311 427.284C380.5 427.235 380.698 427.19 380.881 427.148L380.891 427.146C381.083 427.103 381.268 427.061 381.46 427.012C382.2 426.824 383.002 426.537 383.844 425.838C385.557 424.416 387.723 421.031 389.199 412.284C390.349 405.466 389.362 397.871 387.614 391.085Z" fill="black"/>
<path fill-rule="evenodd" clip-rule="evenodd" d="M361.264 384.116C356.769 382.313 351.802 382.225 348.627 382.706L348.25 380.13C351.756 379.599 357.195 379.685 362.203 381.694C367.266 383.725 371.919 387.747 373.567 395.015C375.496 403.521 376.38 410.498 376.103 415.617C375.834 420.597 374.414 424.473 371.019 425.624C367.802 426.716 364.63 425.376 361.972 422.259C359.336 419.167 357.032 414.173 355.302 407.353L357.78 406.702C359.462 413.337 361.636 417.892 363.904 420.552C366.151 423.186 368.31 423.798 370.21 423.154C371.933 422.569 373.284 420.369 373.548 415.474C373.805 410.719 372.983 404.022 371.074 395.601C369.651 389.326 365.704 385.898 361.264 384.116Z" fill="black"/>
<path fill-rule="evenodd" clip-rule="evenodd" d="M286.541 281.627C284.657 284.098 279.845 290.177 275.655 294.73C271.445 299.305 256.505 312.633 249.615 318.681L247.906 316.722C254.851 310.627 269.657 297.411 273.749 292.965C277.86 288.497 282.617 282.49 284.48 280.046L286.541 281.627Z" fill="black"/>
<path fill-rule="evenodd" clip-rule="evenodd" d="M351.145 258.802C353.376 259.906 355.189 261.687 355.596 264.391C355.952 266.761 355.706 269.679 355.072 272.897C354.435 276.134 353.389 279.765 352.08 283.597C349.463 291.261 345.763 299.826 342.08 307.816C336.166 320.646 320.53 348.329 313.472 360.535L311.223 359.243C318.296 347.011 333.867 319.436 339.721 306.736C343.393 298.771 347.048 290.301 349.623 282.763C350.91 278.995 351.918 275.483 352.525 272.399C353.135 269.298 353.321 266.717 353.029 264.775C352.787 263.166 351.733 261.982 349.99 261.119C348.22 260.243 345.872 259.777 343.414 259.621C340.973 259.465 338.526 259.621 336.626 259.918C335.675 260.066 334.89 260.245 334.326 260.426C334.043 260.516 333.844 260.598 333.718 260.663C333.691 260.677 333.671 260.688 333.656 260.697C333.484 260.914 333.194 261.252 332.814 261.694C331.082 263.707 327.493 267.879 324.895 272.591C323.282 275.518 322.169 278.465 322.115 281.031C322.063 283.488 322.969 285.623 325.567 287.196C327.769 288.528 329.56 288.764 331.019 288.441C332.505 288.113 333.851 287.159 335.05 285.734C337.475 282.853 338.996 278.4 339.626 275.121L342.175 275.607C341.507 279.085 339.87 284.033 337.039 287.397C335.609 289.096 333.803 290.476 331.582 290.967C329.334 291.465 326.863 291.007 324.22 289.407C320.761 287.314 319.45 284.274 319.52 280.977C319.587 277.789 320.935 274.402 322.62 271.345C325.414 266.277 329.462 261.598 331.029 259.786C331.343 259.424 331.557 259.176 331.642 259.063C331.902 258.718 332.264 258.499 332.529 258.363C332.825 258.211 333.169 258.079 333.533 257.962C334.264 257.728 335.189 257.523 336.225 257.361C338.3 257.038 340.937 256.87 343.579 257.038C346.205 257.206 348.94 257.71 351.145 258.802ZM333.621 260.719C333.621 260.719 333.622 260.719 333.624 260.717C333.622 260.719 333.622 260.719 333.621 260.719Z" fill="#3A3A3A"/>
<path fill-rule="evenodd" clip-rule="evenodd" d="M295.654 235.952C298.526 235.344 302.588 235.085 305.711 236.106C307.272 236.616 308.503 237.414 309.283 238.549C310.05 239.666 310.488 241.267 310.18 243.611C309.864 246.01 309.115 247.631 308.192 248.722C307.272 249.81 306.109 250.455 304.82 250.787C302.182 251.467 299.096 250.806 297.039 249.93L296.051 252.32C298.393 253.317 302.076 254.168 305.448 253.299C307.164 252.857 308.816 251.964 310.13 250.41C311.441 248.86 312.346 246.738 312.712 243.953C313.085 241.113 312.586 238.826 311.379 237.067C310.184 235.328 308.403 234.262 306.494 233.639C302.721 232.406 298.082 232.773 295 233.443L294.885 233.468L294.776 233.514C290.908 235.149 283.702 241.593 283.347 254.545C283.002 267.173 286.074 281.084 287.657 286.485L290.106 285.746C288.566 280.492 285.565 266.872 285.901 254.617C286.223 242.827 292.662 237.281 295.654 235.952Z" fill="#3A3A3A"/>
<path fill-rule="evenodd" clip-rule="evenodd" d="M349.432 250.09C351.921 253.15 353.471 256.847 354.151 259.342L351.666 260.021C351.058 257.789 349.647 254.438 347.435 251.718C345.227 249.002 342.359 247.069 338.797 247.218C333.847 247.424 327.218 249.192 322.185 252.586C317.186 255.956 313.947 260.769 315.113 267.187C316.135 272.816 317.182 276.008 318.025 277.706C318.451 278.564 318.779 278.945 318.943 279.082C318.98 279.113 318.997 279.124 318.997 279.124C318.997 279.125 318.765 278.984 318.419 279.157L319.572 281.463C318.702 281.898 317.846 281.524 317.294 281.062C316.735 280.596 316.215 279.853 315.718 278.853C314.716 276.834 313.617 273.364 312.579 267.648C311.169 259.883 315.228 254.167 320.746 250.447C326.23 246.749 333.337 244.865 338.689 244.641C343.369 244.446 346.94 247.025 349.432 250.09Z" fill="#3A3A3A"/>
<path d="M274.582 84.6463C267.669 91.204 248.37 99.4586 239.585 102.766C238.287 102.766 237.427 101.041 230.514 96.7263C223.601 92.412 212.367 93.2749 208.047 101.903C204.59 108.806 214.096 120.023 219.28 124.769C217.264 133.829 210.553 155.832 199.838 171.363C186.444 190.778 89.6635 283.966 75.4057 313.303C65.9325 332.795 56.5393 371.115 57.2593 394.412C54.6565 399.34 68.623 419.238 60.2837 415.983C48.3192 411.314 20.533 397 8.43542 379.743C-3.66214 362.486 0.226363 334.875 6.27514 320.206C12.3239 305.538 24.8535 271.023 26.1497 252.472C27.4459 233.921 25.2856 200.701 33.9267 167.912C42.5678 135.123 99.1671 126.926 129.843 121.749C160.519 116.572 168.296 96.2949 185.578 72.5663C202.861 48.8378 212.366 32.4434 235.697 25.1092C259.028 17.7749 275.878 31.5806 284.087 38.052C290.654 43.2291 296.329 52.5768 298.345 56.6034C293.304 63.2187 281.495 78.0886 274.582 84.6463Z" fill="#3A3A3A"/>
<path fill-rule="evenodd" clip-rule="evenodd" d="M283.884 37.2253C284.052 37.3585 284.218 37.489 284.379 37.6166C291.025 42.8556 296.736 52.2763 298.762 56.3236L298.883 56.5641L298.72 56.7781C293.68 63.3928 281.845 78.2985 274.9 84.8874C271.388 88.2193 264.775 91.9494 257.987 95.2469C251.184 98.5522 244.147 101.449 239.742 103.108L239.669 103.136H239.59C239.155 103.136 238.778 102.986 238.369 102.734C237.99 102.5 237.546 102.153 236.975 101.706L236.892 101.641C235.657 100.675 233.725 99.1743 230.285 97.027C226.921 94.9273 222.492 94.0825 218.38 94.8196C214.276 95.5551 210.514 97.8587 208.424 102.034C207.618 103.642 207.554 105.528 208.026 107.564C208.498 109.601 209.501 111.756 210.784 113.865C213.351 118.083 216.995 122.045 219.568 124.401L219.752 124.569L219.698 124.812C217.675 133.901 210.946 155.977 200.18 171.583C196.808 176.472 188.217 185.969 177.042 197.89C171.297 204.018 164.855 210.802 158.073 217.944C151.658 224.699 144.939 231.775 138.22 238.918C124.389 253.621 110.535 268.628 99.2495 281.793C87.952 294.971 79.2633 306.261 75.7253 313.542C71.0058 323.254 66.2961 337.68 62.8562 352.598C59.4161 367.518 57.2554 382.89 57.614 394.492L57.6175 394.606L57.5643 394.707C57.2996 395.208 57.2228 395.952 57.3359 396.932C57.4477 397.901 57.7377 399.04 58.1406 400.282C58.7831 402.264 59.6947 404.459 60.5789 406.587C60.805 407.132 61.0294 407.672 61.247 408.203C61.7788 409.501 62.2697 410.745 62.6401 411.853C63.0083 412.955 63.268 413.954 63.3198 414.755C63.3697 415.527 63.2341 416.297 62.5819 416.672C62.2697 416.851 61.8935 416.903 61.4815 416.866C61.0696 416.83 60.5934 416.702 60.0504 416.49C54.0393 414.144 44.0722 409.383 34.0899 403.046C24.1141 396.712 14.0821 388.779 7.98195 380.076C1.85808 371.34 -0.201769 360.013 0.0153374 349.065C0.232524 338.112 2.72899 327.483 5.77512 320.096C8.79668 312.768 13.4391 300.477 17.4875 287.701C21.5392 274.916 24.9826 261.685 25.6271 252.46C25.9574 247.732 26.0621 242.032 26.18 235.617C26.5229 216.951 26.9771 192.227 33.4208 167.775C37.8026 151.147 54.3157 140.829 73.4065 134.025C91.042 127.738 111.022 124.399 126.049 121.888C127.311 121.677 128.538 121.472 129.726 121.272C144.967 118.699 154.5 112.385 162.384 103.762C166.334 99.4419 169.873 94.5392 173.511 89.2209C174.552 87.6989 175.602 86.1423 176.671 84.556C179.334 80.6066 182.122 76.4735 185.209 72.2342C187.117 69.6149 188.931 67.0828 190.68 64.6406C204.755 44.9936 214.66 31.1677 235.57 24.5939C258.685 17.3267 275.506 30.6097 283.884 37.2253ZM283.379 37.9271C274.997 31.3102 258.504 18.2888 235.829 25.4174C215.21 31.8999 205.478 45.4781 191.378 65.1521C189.632 67.5891 187.818 70.1197 185.908 72.742C182.831 76.9679 180.057 81.0804 177.397 85.0251C176.325 86.6145 175.272 88.1766 174.224 89.7079C170.582 95.0327 167.015 99.9771 163.023 104.344C155.021 113.095 145.319 119.515 129.87 122.123C128.684 122.323 127.459 122.528 126.2 122.738C111.162 125.252 91.2562 128.579 73.6971 134.838C54.6418 141.63 38.5201 151.816 34.2568 167.994C27.8427 192.335 27.3913 216.881 27.0483 235.536C26.9297 241.985 26.8241 247.73 26.4895 252.52C25.8373 261.856 22.3647 275.172 18.3117 287.962C14.2554 300.762 9.60445 313.076 6.57451 320.424C3.56914 327.713 1.09473 338.236 0.879668 349.082C0.664525 359.931 2.71105 371.051 8.69018 379.581C14.693 388.145 24.6119 396.005 34.5537 402.317C44.489 408.625 54.4062 413.36 60.3651 415.686C60.8649 415.881 61.2572 415.98 61.5585 416.007C61.8597 416.033 62.0413 415.987 62.1505 415.924C62.3413 415.814 62.5032 415.524 62.4571 414.811C62.4128 414.126 62.183 413.213 61.82 412.127C61.4593 411.047 60.9775 409.825 60.4469 408.53C60.2333 408.009 60.0118 407.476 59.7875 406.936C58.9019 404.804 57.9724 402.566 57.3181 400.548C56.9076 399.282 56.5984 398.082 56.4771 397.031C56.3628 396.041 56.4083 395.127 56.7466 394.41C56.4015 382.716 58.5766 367.312 62.0138 352.405C65.462 337.45 70.1897 322.956 74.9476 313.165C78.5417 305.769 87.3052 294.398 98.5927 281.231C109.892 268.051 123.757 253.031 137.59 238.327C144.319 231.174 151.037 224.099 157.45 217.346C164.226 210.21 170.662 203.432 176.411 197.3C187.604 185.358 196.141 175.916 199.468 171.093C210.049 155.755 216.723 134.053 218.799 124.867C216.198 122.457 212.605 118.52 210.045 114.313C208.735 112.16 207.684 109.917 207.184 107.759C206.683 105.599 206.727 103.493 207.651 101.648C209.883 97.1898 213.901 94.7452 218.227 93.9699C222.543 93.1962 227.191 94.078 230.743 96.2949C234.219 98.4642 236.176 99.985 237.425 100.961L237.473 100.999C238.077 101.471 238.487 101.792 238.824 102C239.121 102.183 239.326 102.256 239.518 102.27C243.907 100.614 250.875 97.7423 257.609 94.4706C264.401 91.1709 270.9 87.4908 274.304 84.2615C281.118 77.7977 292.735 63.194 297.868 56.47C295.762 52.3402 290.213 43.3154 283.844 38.2942C283.692 38.1742 283.536 38.0518 283.379 37.9271Z" fill="#3A3A3A"/>
<path d="M247.26 24.151C247.69 31.6377 247.604 49.8935 243.826 63.024C240.049 76.1543 232.808 90.6669 229.66 96.2819L236.958 101.897C237.244 101.321 240.392 96.9729 250.695 84.1881C260.997 71.4032 269.583 43.7314 272.588 31.4936C270.727 28.4702 265.376 22.3369 258.851 21.9914C252.326 21.6459 248.405 23.2872 247.26 24.151Z" fill="white"/>
<path fill-rule="evenodd" clip-rule="evenodd" d="M249.216 25.2286C249.583 33.3304 249.352 50.7727 245.646 63.5827C242.067 75.9521 235.462 89.4739 231.986 95.8637L236.695 99.4667C237.199 98.7784 237.902 97.8441 238.848 96.6148C240.981 93.8447 244.369 89.5533 249.55 83.1604C254.544 76.9983 259.21 67.1109 263.026 57.104C266.678 47.5295 269.49 38.0137 271.03 31.9142C270.109 30.5727 268.586 28.7629 266.654 27.1896C264.41 25.3616 261.769 23.9773 258.994 23.8312C253.924 23.5642 250.671 24.55 249.216 25.2286ZM246.404 22.8842C247.98 21.7018 252.365 20.0251 259.176 20.3838C262.957 20.5829 266.282 22.4351 268.833 24.5124C271.392 26.5969 273.327 29.0337 274.354 30.6925L274.736 31.31L274.562 32.0151C273.037 38.1892 270.106 48.2254 266.25 58.3347C262.411 68.401 257.588 78.7235 252.23 85.3347C247.059 91.715 243.69 95.9823 241.582 98.7214C240.527 100.092 239.792 101.073 239.306 101.743C238.854 102.367 238.677 102.642 238.639 102.7C238.633 102.71 238.63 102.714 238.631 102.712L237.698 104.58L227.516 96.7897L228.253 95.4823C231.383 89.9307 238.588 75.5617 242.332 62.6227C246.045 49.7883 246.145 31.7829 245.717 24.3645L245.664 23.4399L246.404 22.8842Z" fill="#3A3A3A"/>
<path fill-rule="evenodd" clip-rule="evenodd" d="M305.211 81.8588C300.623 74.4341 296.885 62.1085 295.589 56.9136L298.093 56.2861C299.379 61.44 303.042 73.4337 307.406 80.4971C311.852 87.6929 316.959 94.64 318.946 97.2004L319.275 97.6233L319.208 98.155C319.125 98.8201 318.909 99.8497 318.52 100.871C318.144 101.856 317.534 103.033 316.55 103.773L313.604 105.986C313.458 110.737 313.208 117.731 312.912 124.035C312.758 127.327 312.591 130.436 312.419 132.943C312.249 135.412 312.069 137.389 311.878 138.349C311.436 140.561 310.426 144.538 308.073 147.988C305.686 151.489 301.88 154.481 295.98 154.481C287.67 154.481 275.6 152.9 269.884 152.003C268.558 153.883 266.703 156.76 264.98 159.948C263.037 163.543 261.318 167.431 260.668 170.689C258.959 179.25 250.792 236.528 249.504 275.259C248.474 306.216 248.215 318 248.213 320.041L249.504 363.14L246.923 363.218L245.631 320.079V320.06C245.631 318.02 245.891 306.208 246.923 275.172C248.217 236.288 256.402 178.868 258.136 170.182C258.863 166.54 260.73 162.38 262.71 158.716C264.701 155.032 266.863 151.749 268.257 149.837L268.725 149.196L269.506 149.323C274.802 150.184 287.483 151.894 295.98 151.894C300.839 151.894 303.918 149.496 305.942 146.529C308 143.511 308.927 139.942 309.346 137.842C309.498 137.078 309.67 135.281 309.843 132.765C310.013 130.286 310.179 127.197 310.333 123.913C310.641 117.347 310.899 110.024 311.043 105.286L311.061 104.663L315.001 101.703C315.395 101.407 315.788 100.788 316.108 99.9477C316.324 99.3801 316.473 98.8025 316.563 98.3413C314.339 95.4368 309.479 88.7684 305.211 81.8588ZM220.707 104.586C222.916 104.592 225.787 104.932 228.565 106.324C234.042 109.068 237.126 113.502 238.236 116.52L235.813 117.414C234.915 114.971 232.261 111.068 227.41 108.638C225.11 107.485 222.674 107.179 220.701 107.174C219.72 107.171 218.867 107.243 218.221 107.317C217.921 107.351 217.667 107.386 217.458 107.414L217.409 107.421C217.395 107.422 217.381 107.424 217.366 107.426C217.204 107.449 216.967 107.481 216.799 107.481V104.894C216.776 104.894 216.777 104.894 216.834 104.887C216.876 104.881 216.948 104.872 217.064 104.857L217.113 104.85C217.323 104.822 217.601 104.784 217.929 104.746C218.641 104.665 219.598 104.584 220.707 104.586Z" fill="#3A3A3A"/>
<path d="M227.93 207.032C234.834 224.299 246.629 227.752 251.663 227.321C247.864 251.494 247.78 328.62 248.212 364.161L179.172 370.204C175.145 371.787 161.74 372.794 140.338 364.161C113.585 353.369 94.5991 324.878 74.3188 302C54.0385 279.121 40.2306 281.28 35.9156 289.05C31.6006 296.82 67.4149 335.239 60.5109 332.649C53.607 330.059 35.4828 297.683 31.1679 289.05C26.8529 280.416 47.1332 274.373 72.16 263.581C97.1869 252.789 156.733 191.492 184.349 175.952C211.965 160.411 219.3 185.448 227.93 207.032Z" fill="#1559D5"/>
<path fill-rule="evenodd" clip-rule="evenodd" d="M227.424 202.292C228.005 203.772 228.584 205.244 229.165 206.693C235.899 223.468 247.227 226.505 251.624 226.13L253.273 225.989L253.016 227.618C251.13 239.571 250.157 264.744 249.714 291.455C249.271 318.127 249.358 346.22 249.575 363.942L249.589 365.14L179.411 371.259C177.066 372.118 172.535 372.702 166.07 372.082C159.391 371.44 150.553 369.504 139.731 365.156C126.073 359.668 114.464 349.709 103.772 338.352C98.4221 332.669 93.2819 326.614 88.222 320.568C87.4017 319.589 86.5838 318.609 85.7674 317.631C81.5401 312.569 77.3549 307.558 73.1122 302.79C63.0361 291.468 54.73 286.534 48.5875 285.269C42.5402 284.024 38.6009 286.311 36.7459 289.639C36.4819 290.112 36.4151 291.098 36.9525 292.831C37.4658 294.485 38.433 296.515 39.7385 298.804C42.3445 303.375 46.1667 308.759 49.9479 313.873C51.2635 315.652 52.5773 317.403 53.8296 319.071C56.1502 322.163 58.2594 324.973 59.7775 327.163C60.9246 328.818 61.8368 330.26 62.2125 331.247C62.3099 331.503 62.4015 331.803 62.4277 332.113C62.4523 332.402 62.437 332.918 62.0603 333.366C61.6543 333.85 61.1014 333.939 60.7468 333.931C60.4013 333.923 60.0697 333.827 59.7951 333.724C58.6628 333.301 57.4615 332.35 56.2682 331.176C55.0448 329.973 53.7122 328.417 52.3227 326.63C49.542 323.054 46.4628 318.462 43.4812 313.709C37.5172 304.201 31.8773 293.935 29.6965 289.589C29.0446 288.29 28.828 286.968 29.0771 285.649C29.3223 284.35 29.9978 283.163 30.9427 282.075C32.8047 279.93 35.9154 277.939 39.7729 275.963C44.7209 273.428 51.2142 270.769 58.5125 267.781C62.6013 266.107 66.9427 264.329 71.4066 262.412C77.5018 259.793 85.8125 254.05 95.3642 246.558C104.887 239.089 115.536 229.969 126.29 220.68C127.683 219.476 129.078 218.27 130.473 217.064C139.832 208.971 149.167 200.898 157.776 193.852C167.652 185.767 176.644 178.972 183.668 175.034C190.722 171.081 196.643 169.615 201.717 170.151C206.823 170.69 210.88 173.235 214.225 176.907C217.549 180.556 220.208 185.358 222.564 190.527C224.278 194.29 225.861 198.318 227.424 202.292ZM201.444 172.721C197.09 172.261 191.718 173.487 184.94 177.287C178.132 181.102 169.294 187.768 159.422 195.849C150.843 202.871 141.537 210.918 132.175 219.014C130.78 220.22 129.384 221.427 127.989 222.632C117.239 231.918 106.546 241.077 96.9683 248.589C87.4201 256.078 78.873 262.019 72.4331 264.785C67.8453 266.755 63.4456 268.556 59.3372 270.238C52.1278 273.189 45.8156 275.773 40.9586 278.261C37.1438 280.216 34.4191 282.021 32.9041 283.766C32.1606 284.622 31.7622 285.404 31.6258 286.126C31.4934 286.828 31.5875 287.579 32.0162 288.433C32.5486 289.494 33.2948 290.922 34.2065 292.613C33.8518 291.094 33.8068 289.589 34.4788 288.384C36.9462 283.958 42.0841 281.291 49.1123 282.738C56.0453 284.166 64.8129 289.569 75.0526 301.076C79.3248 305.876 83.5406 310.924 87.7675 315.986C88.5823 316.962 89.3975 317.938 90.2136 318.913C95.271 324.955 100.37 330.96 105.664 336.584C116.26 347.84 127.561 357.479 140.701 362.759C151.319 367.025 159.915 368.894 166.319 369.509C172.765 370.128 176.898 369.469 178.644 368.785L178.819 368.717L246.967 362.775C246.761 344.983 246.688 317.521 247.121 291.413C247.546 265.808 248.458 241.4 250.23 228.727C244.069 228.421 233.242 223.807 226.757 207.653C226.16 206.164 225.572 204.668 224.985 203.174C223.431 199.222 221.886 195.291 220.202 191.595C217.884 186.507 215.357 181.995 212.305 178.644C209.274 175.317 205.766 173.178 201.444 172.721ZM46.1098 313.022C48.934 317.495 51.7997 321.738 54.3728 325.047C55.7256 326.787 56.9798 328.245 58.0899 329.337C58.125 329.371 58.1598 329.405 58.1943 329.439C58.0235 329.184 57.8399 328.915 57.6436 328.632C56.1519 326.48 54.0952 323.74 51.7987 320.681C50.54 319.003 49.2092 317.231 47.86 315.406C47.2778 314.619 46.6928 313.822 46.1098 313.022Z" fill="#1559D5"/>
<path fill-rule="evenodd" clip-rule="evenodd" d="M229.332 203.314C230.043 203.284 230.644 203.839 230.674 204.554C231.543 225.522 223.141 266.107 208.659 300.045C194.223 333.871 182.882 360.736 179.016 369.939C178.739 370.597 177.983 370.906 177.327 370.628C176.671 370.35 176.364 369.591 176.641 368.932C180.509 359.725 191.852 332.855 206.289 299.025C220.679 265.305 228.947 225.116 228.098 204.661C228.068 203.947 228.621 203.344 229.332 203.314Z" fill="white"/>
<path d="M66.2437 335.315C56.7443 323.688 37.7453 299.4 37.7453 295.265C37.7453 290.098 34.291 288.375 42.4951 285.791C50.6991 283.208 67.9709 294.404 72.2888 301.294C74.9538 305.547 75.9054 306.826 76.1351 306.991C76.1485 306.958 76.1618 306.925 76.175 306.893C76.2079 306.991 76.2032 307.04 76.1351 306.991C72.8117 315.207 66.2437 331.702 66.2437 332.731V335.315Z" fill="#2339AF"/>
<path fill-rule="evenodd" clip-rule="evenodd" d="M49.3709 287.108C46.6236 286.335 44.2903 286.19 42.5863 286.729C40.5634 287.37 39.4045 287.916 38.7494 288.397C38.1636 288.827 38.0551 289.144 38.0215 289.435C37.9701 289.882 38.0795 290.427 38.2931 291.447C38.4913 292.393 38.7333 293.591 38.7333 295.038C38.7333 295.084 38.7536 295.263 38.8781 295.624C38.9957 295.965 39.1796 296.393 39.435 296.91C39.9455 297.943 40.6997 299.244 41.6559 300.76C43.5657 303.786 46.2225 307.575 49.1912 311.62C54.2887 318.565 60.2664 326.211 64.8628 331.937C64.9147 331.758 64.979 331.553 65.0527 331.327C65.246 330.736 65.522 329.953 65.8583 329.032C66.532 327.185 67.4626 324.741 68.4945 322.078C70.4418 317.052 72.7589 311.222 74.4142 307.099C74.2533 306.882 74.0595 306.608 73.8276 306.269C73.2114 305.368 72.2941 303.956 70.9546 301.806C68.9582 298.602 63.7663 294.174 57.9441 290.852C55.0584 289.206 52.0877 287.872 49.3709 287.108ZM76.9769 307.688C75.3159 311.822 72.9181 317.851 70.9147 323.021C69.8846 325.68 68.9614 328.105 68.2967 329.927C67.9638 330.839 67.6995 331.59 67.5198 332.139C67.4295 332.415 67.365 332.627 67.3244 332.777C67.3097 332.831 67.3006 332.869 67.2952 332.892V339.071L64.9905 336.234C60.2219 330.363 53.0673 321.294 47.1003 313.164C44.1185 309.102 41.42 305.256 39.462 302.153C38.4844 300.604 37.6766 299.216 37.1086 298.067C36.8248 297.493 36.5903 296.957 36.4243 296.475C36.2652 296.014 36.1368 295.513 36.1368 295.038C36.1368 293.881 35.946 292.908 35.752 291.982C35.7392 291.921 35.7259 291.858 35.7126 291.795C35.5403 290.982 35.3392 290.032 35.4421 289.137C35.5708 288.018 36.1384 287.086 37.2161 286.295C38.2244 285.555 39.7161 284.907 41.8044 284.246C44.2116 283.483 47.1254 283.771 50.0716 284.6C53.0482 285.437 56.2172 286.87 59.2279 288.588C65.1983 291.995 70.8253 296.684 73.1565 300.426C74.2191 302.131 75.0038 303.352 75.5753 304.212L76.0665 302.99L77.182 306.347C77.2009 306.404 77.2277 306.493 77.2462 306.598L77.2467 306.601C77.2579 306.664 77.3048 306.929 77.2114 307.24C77.1746 307.363 77.1051 307.527 76.9769 307.688Z" fill="#2339AF"/>
<path d="M245.934 143.525C246.626 149.452 255.588 161.248 259.767 165.751C261.064 164.008 263.658 158.343 265.387 154.856C267.548 150.498 274.897 149.626 271.871 149.626C269.45 149.626 254.724 141.491 247.663 137.423C246.799 136.988 245.242 137.598 245.934 143.525Z" fill="#3A3A3A"/>
<path d="M562.815 121.751L529.078 92.3774L600.445 35.3589L562.815 121.751Z" fill="#00C2B3"/>
<path d="M526.54 90.9757L495.464 74.1429L599.476 35.302L526.54 90.9757Z" fill="#00C2B3"/>
<path d="M525.324 116.921V90.0913L539.276 102.208L525.324 116.921Z" fill="#3A3A3A"/>
</svg>
