<svg width="20" height="22" viewBox="0 0 22 24" fill="none" xmlns="http://www.w3.org/2000/svg">
<path d="M2.96629 5.93256C4.60453 5.93256 5.93258 4.60451 5.93258 2.96627C5.93258 1.32803 4.60453 -2.28882e-05 2.96629 -2.28882e-05C1.32805 -2.28882e-05 0 1.32803 0 2.96627C0 4.60451 1.32805 5.93256 2.96629 5.93256Z" fill="currentColor"/>
<path fill-rule="evenodd" clip-rule="evenodd" d="M3.70786 8.89885C3.70786 8.21626 4.26122 7.6629 4.94382 7.6629H11.8652C12.5478 7.6629 13.1011 8.21626 13.1011 8.89885C13.1011 9.58145 12.5478 10.1348 11.8652 10.1348H4.94382C4.26122 10.1348 3.70786 9.58145 3.70786 8.89885Z" fill="currentColor"/>
<path d="M5.93258 22.7089C5.93258 23.2725 5.47479 23.7303 4.91119 23.7303C4.3733 23.7303 3.92737 23.3131 3.89178 22.7762L3.4587 16.28C3.4409 16.0219 3.22634 15.8202 2.96629 15.8202C2.70625 15.8202 2.49169 16.0219 2.47389 16.281L2.04081 22.7771C2.00521 23.3131 1.55928 23.7303 1.02139 23.7303C0.457798 23.7303 0 23.2725 0 22.7089V9.88762C0 8.79503 0.884944 7.91009 1.97753 7.91009H7.91011V9.88762H6.92135C6.37555 9.88762 5.93258 10.3306 5.93258 10.8764V22.7089Z" fill="currentColor"/>
<path fill-rule="evenodd" clip-rule="evenodd" d="M7.91011 1.73031H20.764C21.4466 1.73031 22 2.28367 22 2.96627V14.8314C22 15.514 21.4466 16.0674 20.764 16.0674H7.91011V13.5955H19.5281V4.20222H7.91011V1.73031Z" fill="currentColor"/>
<path fill-rule="evenodd" clip-rule="evenodd" d="M12.8539 0.74155C13.5365 0.74155 14.0899 1.29491 14.0899 1.97751V2.96627C14.0899 3.64887 13.5365 4.20222 12.8539 4.20222C12.1713 4.20222 11.618 3.64887 11.618 2.96627V1.97751C11.618 1.29491 12.1713 0.74155 12.8539 0.74155Z" fill="currentColor"/>
<path fill-rule="evenodd" clip-rule="evenodd" d="M11.1762 13.6324C11.8384 13.7979 12.241 14.469 12.0755 15.1312L10.0979 23.0413C9.93237 23.7035 9.26133 24.1062 8.59911 23.9406C7.93689 23.775 7.53427 23.104 7.69982 22.4418L9.67735 14.5317C9.84291 13.8695 10.514 13.4668 11.1762 13.6324Z" fill="currentColor"/>
<path fill-rule="evenodd" clip-rule="evenodd" d="M14.5317 13.6324C15.1939 13.4668 15.865 13.8695 16.0305 14.5317L18.008 22.4418C18.1736 23.104 17.771 23.775 17.1088 23.9406C16.4465 24.1062 15.7755 23.7035 15.6099 23.0413L13.6324 15.1312C13.4669 14.469 13.8695 13.7979 14.5317 13.6324Z" fill="currentColor"/>
</svg>
