<svg width="24" height="24" viewBox="0 0 24 24" fill="none" xmlns="http://www.w3.org/2000/svg">
<path fill-rule="evenodd" clip-rule="evenodd" d="M1.00029 7.07682C1.00029 6.1422 1.75795 5.38455 2.69257 5.38455H21.3076C22.2422 5.38455 22.9999 6.1422 22.9999 7.07682V20.615C22.9999 21.5496 22.2422 22.3073 21.3076 22.3073H2.69257C1.75795 22.3073 1.00029 21.5496 1.00029 20.615V7.07682ZM21.3076 7.07682H2.69257V20.615H21.3076V7.07682Z" fill="currentColor"/>
<path fill-rule="evenodd" clip-rule="evenodd" d="M7.66589 2.74348C8.14193 2.26744 8.78759 2 9.46082 2H14.5376C15.2109 2 15.8565 2.26744 16.3326 2.74348C16.8086 3.21953 17.076 3.86518 17.076 4.53841V6.23068C17.076 6.69799 16.6972 7.07682 16.2299 7.07682C15.7626 7.07682 15.3838 6.69799 15.3838 6.23068V4.53841C15.3838 4.314 15.2946 4.09878 15.1359 3.9401C14.9773 3.78142 14.762 3.69227 14.5376 3.69227H9.46082C9.23641 3.69227 9.02119 3.78142 8.86251 3.9401C8.70383 4.09878 8.61468 4.314 8.61468 4.53841V6.23068C8.61468 6.69799 8.23585 7.07682 7.76854 7.07682C7.30123 7.07682 6.92241 6.69799 6.92241 6.23068V4.53841C6.92241 3.86518 7.18985 3.21953 7.66589 2.74348ZM22.8861 11.5511C23.1201 11.9556 22.9819 12.4732 22.5775 12.7072C19.3627 14.5671 15.7132 15.5438 11.9992 15.5382C8.28585 15.5438 4.637 14.5674 1.42261 12.7081C1.0181 12.4741 0.879863 11.9565 1.11385 11.552C1.34783 11.1475 1.86543 11.0093 2.26994 11.2433C5.22639 12.9534 8.58249 13.8513 11.9979 13.8459H12.0006C15.4166 13.8513 18.7732 12.9531 21.73 11.2424C22.1345 11.0084 22.6521 11.1466 22.8861 11.5511Z" fill="currentColor"/>
<path fill-rule="evenodd" clip-rule="evenodd" d="M9.88389 11.3075C9.88389 10.8402 10.2627 10.4614 10.73 10.4614H13.2684C13.7357 10.4614 14.1146 10.8402 14.1146 11.3075C14.1146 11.7748 13.7357 12.1536 13.2684 12.1536H10.73C10.2627 12.1536 9.88389 11.7748 9.88389 11.3075Z" fill="currentColor"/>
</svg>
