<svg width="24" height="24" viewBox="0 0 24 24" fill="none" xmlns="http://www.w3.org/2000/svg">
<g clip-path="url(#clip0_8363_15281)">
<path d="M12.3165 3.07054C12.2174 3.0244 12.1093 3.00049 12 3.00049C11.8907 3.00049 11.7826 3.0244 11.6835 3.07054L0.433501 8.32054C0.301024 8.38238 0.189508 8.48158 0.112668 8.60596C0.0358267 8.73033 -0.00298844 8.87445 0.000995822 9.02059C0.00498008 9.16674 0.05159 9.30853 0.135093 9.42853C0.218597 9.54853 0.335352 9.64152 0.471001 9.69604L11.721 14.196C11.9001 14.2678 12.0999 14.2678 12.279 14.196L21 10.71V19.5C20.6022 19.5 20.2206 19.6581 19.9393 19.9394C19.658 20.2207 19.5 20.6022 19.5 21V24H24V21C24 20.6022 23.842 20.2207 23.5607 19.9394C23.2794 19.6581 22.8978 19.5 22.5 19.5V10.1085L23.529 9.69604C23.6646 9.64152 23.7814 9.54853 23.8649 9.42853C23.9484 9.30853 23.995 9.16674 23.999 9.02059C24.003 8.87445 23.9642 8.73033 23.8873 8.60596C23.8105 8.48158 23.699 8.38238 23.5665 8.32054L12.3165 3.07054ZM12 12.69L2.637 8.94754L12 4.57804L21.363 8.94754L12 12.69Z" fill="currentColor"/>
<path d="M6.264 13.548C6.16742 13.5116 6.06438 13.4956 5.96131 13.5009C5.85824 13.5061 5.75737 13.5326 5.66501 13.5786C5.57265 13.6247 5.49078 13.6893 5.42453 13.7684C5.35828 13.8476 5.30908 13.9395 5.28 14.0385L4.53 16.5885C4.47746 16.7675 4.49354 16.9597 4.57508 17.1275C4.65663 17.2953 4.79778 17.4267 4.971 17.496L11.721 20.196C11.9001 20.2678 12.0999 20.2678 12.279 20.196L19.029 17.496C19.2022 17.4267 19.3434 17.2953 19.4249 17.1275C19.5065 16.9597 19.5225 16.7675 19.47 16.5885L18.72 14.0385C18.6909 13.9395 18.6417 13.8476 18.5755 13.7684C18.5092 13.6893 18.4273 13.6247 18.335 13.5786C18.2426 13.5326 18.1418 13.5061 18.0387 13.5009C17.9356 13.4956 17.8326 13.5116 17.736 13.548L12 15.699L6.264 13.548ZM6.162 16.3575L6.492 15.2355L11.736 17.202C11.9062 17.266 12.0938 17.266 12.264 17.202L17.508 15.2355L17.838 16.3575L12 18.69L6.162 16.3575Z" fill="currentColor"/>
</g>
<defs>
<clipPath id="clip0_8363_15281">
<rect width="24" height="24" fill="white"/>
</clipPath>
</defs>
</svg>
